<svg xmlns="http://www.w3.org/2000/svg" xmlns:xlink="http://www.w3.org/1999/xlink" width="500" zoomAndPan="magnify" viewBox="0 0 375 374.999991" height="500" preserveAspectRatio="xMidYMid meet" version="1.0"><defs><g/><clipPath id="61946f24ff"><path d="M 71.617188 71.617188 L 303.382812 71.617188 L 303.382812 303.382812 L 71.617188 303.382812 Z M 71.617188 71.617188 " clip-rule="nonzero"/></clipPath><clipPath id="ca15700225"><path d="M 187.5 71.617188 C 123.5 71.617188 71.617188 123.5 71.617188 187.5 C 71.617188 251.5 123.5 303.382812 187.5 303.382812 C 251.5 303.382812 303.382812 251.5 303.382812 187.5 C 303.382812 123.5 251.5 71.617188 187.5 71.617188 Z M 187.5 71.617188 " clip-rule="nonzero"/></clipPath><clipPath id="dfd07cf240"><path d="M 71.617188 71.617188 L 303.367188 71.617188 L 303.367188 303.367188 L 71.617188 303.367188 Z M 71.617188 71.617188 " clip-rule="nonzero"/></clipPath><clipPath id="992bbc80a5"><path d="M 187.5 71.617188 C 123.5 71.617188 71.617188 123.5 71.617188 187.5 C 71.617188 251.5 123.5 303.378906 187.5 303.378906 C 251.5 303.378906 303.378906 251.5 303.378906 187.5 C 303.378906 123.5 251.5 71.617188 187.5 71.617188 Z M 187.5 71.617188 " clip-rule="nonzero"/></clipPath><clipPath id="36d7f53f32"><path d="M 106.089844 106.089844 L 268.910156 106.089844 L 268.910156 268.910156 L 106.089844 268.910156 Z M 106.089844 106.089844 " clip-rule="nonzero"/></clipPath><clipPath id="e3380a5a2f"><path d="M 187.5 106.089844 C 142.539062 106.089844 106.089844 142.539062 106.089844 187.5 C 106.089844 232.460938 142.539062 268.910156 187.5 268.910156 C 232.460938 268.910156 268.910156 232.460938 268.910156 187.5 C 268.910156 142.539062 232.460938 106.089844 187.5 106.089844 Z M 187.5 106.089844 " clip-rule="nonzero"/></clipPath><clipPath id="c76d05460f"><path d="M 106.089844 106.089844 L 268.839844 106.089844 L 268.839844 268.839844 L 106.089844 268.839844 Z M 106.089844 106.089844 " clip-rule="nonzero"/></clipPath><clipPath id="e8bfd05f37"><path d="M 187.496094 106.089844 C 142.535156 106.089844 106.089844 142.535156 106.089844 187.496094 C 106.089844 232.453125 142.535156 268.898438 187.496094 268.898438 C 232.453125 268.898438 268.898438 232.453125 268.898438 187.496094 C 268.898438 142.535156 232.453125 106.089844 187.496094 106.089844 Z M 187.496094 106.089844 " clip-rule="nonzero"/></clipPath><clipPath id="0e218e0a54"><path d="M 85.242188 167.941406 L 94.492188 167.941406 L 94.492188 177.191406 L 85.242188 177.191406 Z M 85.242188 167.941406 " clip-rule="nonzero"/></clipPath><clipPath id="03e3e64f97"><path d="M 89.867188 167.941406 C 87.3125 167.941406 85.242188 170.011719 85.242188 172.566406 C 85.242188 175.121094 87.3125 177.191406 89.867188 177.191406 C 92.421875 177.191406 94.492188 175.121094 94.492188 172.566406 C 94.492188 170.011719 92.421875 167.941406 89.867188 167.941406 Z M 89.867188 167.941406 " clip-rule="nonzero"/></clipPath><clipPath id="b2154fc388"><path d="M 280.160156 167.941406 L 289.410156 167.941406 L 289.410156 177.191406 L 280.160156 177.191406 Z M 280.160156 167.941406 " clip-rule="nonzero"/></clipPath><clipPath id="f7722ed932"><path d="M 284.785156 167.941406 C 282.230469 167.941406 280.160156 170.011719 280.160156 172.566406 C 280.160156 175.121094 282.230469 177.191406 284.785156 177.191406 C 287.339844 177.191406 289.410156 175.121094 289.410156 172.566406 C 289.410156 170.011719 287.339844 167.941406 284.785156 167.941406 Z M 284.785156 167.941406 " clip-rule="nonzero"/></clipPath><clipPath id="f0e5855eab"><path d="M 127.0625 169 L 140 169 L 140 186 L 127.0625 186 Z M 127.0625 169 " clip-rule="nonzero"/></clipPath><clipPath id="5cfed0c92e"><path d="M 137 137 L 193 137 L 193 242.898438 L 137 242.898438 Z M 137 137 " clip-rule="nonzero"/></clipPath><clipPath id="89f2279108"><path d="M 235 169 L 247.8125 169 L 247.8125 186 L 235 186 Z M 235 169 " clip-rule="nonzero"/></clipPath><clipPath id="35791400c2"><path d="M 183 137 L 238 137 L 238 242.898438 L 183 242.898438 Z M 183 137 " clip-rule="nonzero"/></clipPath><clipPath id="222c940eaa"><path d="M 178.488281 162 L 196.488281 162 L 196.488281 200 L 178.488281 200 Z M 178.488281 162 " clip-rule="nonzero"/></clipPath><clipPath id="6433a4f728"><path d="M 178.488281 174 L 196.488281 174 L 196.488281 185 L 178.488281 185 Z M 178.488281 174 " clip-rule="nonzero"/></clipPath><clipPath id="2474b5fdd9"><path d="M 178.488281 184 L 196.488281 184 L 196.488281 195 L 178.488281 195 Z M 178.488281 184 " clip-rule="nonzero"/></clipPath><clipPath id="65799db61e"><path d="M 183 144.84375 L 192 144.84375 L 192 157 L 183 157 Z M 183 144.84375 " clip-rule="nonzero"/></clipPath></defs><g clip-path="url(#61946f24ff)"><g clip-path="url(#ca15700225)"><path fill="#00bf63" d="M 71.617188 71.617188 L 303.382812 71.617188 L 303.382812 303.382812 L 71.617188 303.382812 Z M 71.617188 71.617188 " fill-opacity="1" fill-rule="nonzero"/></g></g><g clip-path="url(#dfd07cf240)"><g clip-path="url(#992bbc80a5)"><path stroke-linecap="butt" transform="matrix(0.75, 0, 0, 0.75, 71.618971, 71.618966)" fill="none" stroke-linejoin="miter" d="M 154.508049 -0.002372 C 69.17471 -0.002372 -0.002378 69.174716 -0.002378 154.508055 C -0.002378 239.841394 69.17471 309.013273 154.508049 309.013273 C 239.841388 309.013273 309.013267 239.841394 309.013267 154.508055 C 309.013267 69.174716 239.841388 -0.002372 154.508049 -0.002372 Z M 154.508049 -0.002372 " stroke="#ffaa01" stroke-width="6" stroke-opacity="1" stroke-miterlimit="4"/></g></g><g clip-path="url(#36d7f53f32)"><g clip-path="url(#e3380a5a2f)"><path fill="#ffffff" d="M 106.089844 106.089844 L 268.910156 106.089844 L 268.910156 268.910156 L 106.089844 268.910156 Z M 106.089844 106.089844 " fill-opacity="1" fill-rule="nonzero"/></g></g><g clip-path="url(#c76d05460f)"><g clip-path="url(#e8bfd05f37)"><path stroke-linecap="butt" transform="matrix(0.75, 0, 0, 0.75, 106.090903, 106.090899)" fill="none" stroke-linejoin="miter" d="M 108.540268 -0.00140651 C 48.592344 -0.00140651 -0.00141251 48.59235 -0.00141251 108.540274 C -0.00141251 168.48299 48.592344 217.076747 108.540268 217.076747 C 168.482984 217.076747 217.076741 168.48299 217.076741 108.540274 C 217.076741 48.59235 168.482984 -0.00140651 108.540268 -0.00140651 Z M 108.540268 -0.00140651 " stroke="#ffaa01" stroke-width="6" stroke-opacity="1" stroke-miterlimit="4"/></g></g><g clip-path="url(#0e218e0a54)"><g clip-path="url(#03e3e64f97)"><path fill="#ffffff" d="M 85.242188 167.941406 L 94.492188 167.941406 L 94.492188 177.191406 L 85.242188 177.191406 Z M 85.242188 167.941406 " fill-opacity="1" fill-rule="nonzero"/></g></g><g clip-path="url(#b2154fc388)"><g clip-path="url(#f7722ed932)"><path fill="#ffffff" d="M 280.160156 167.941406 L 289.410156 167.941406 L 289.410156 177.191406 L 280.160156 177.191406 Z M 280.160156 167.941406 " fill-opacity="1" fill-rule="nonzero"/></g></g><path fill="#ffaa01" d="M 150.777344 145.191406 C 147.722656 150.035156 145.675781 151.191406 143.789062 150.371094 C 142.035156 149.585938 141.203125 146.875 144.691406 141.328125 C 148.214844 135.621094 157.066406 131.957031 157.039062 132.101562 C 156.859375 132.164062 153.625 140.425781 150.777344 145.191406 Z M 150.777344 145.191406 " fill-opacity="1" fill-rule="nonzero"/><path fill="#ffaa01" d="M 146.441406 164.957031 C 143.046875 167.59375 138.8125 166.566406 138.800781 166.511719 C 138.652344 166.554688 140.050781 158.398438 144.179688 156.023438 C 148.136719 153.644531 153.738281 155.960938 153.722656 155.914062 C 153.585938 155.871094 149.6875 162.257812 146.441406 164.957031 Z M 146.441406 164.957031 " fill-opacity="1" fill-rule="nonzero"/><path fill="#ffaa01" d="M 132.535156 162.175781 C 134.628906 166.703125 139.207031 166.515625 139.167969 166.566406 C 139.058594 166.511719 140.636719 158.90625 139.4375 154.332031 C 138.089844 149.730469 132.976562 146.828125 132.929688 146.855469 C 132.703125 146.820312 130.167969 157.632812 132.535156 162.175781 Z M 132.535156 162.175781 " fill-opacity="1" fill-rule="nonzero"/><path fill="#ffaa01" d="M 145.921875 181.683594 C 143.527344 185.195312 139.191406 185.550781 139.164062 185.5 C 139.042969 185.574219 137.8125 177.546875 140.914062 174.125 C 143.871094 170.738281 149.902344 171.160156 149.878906 171.121094 C 149.75 171.101562 148.164062 178.144531 145.921875 181.683594 Z M 145.921875 181.683594 " fill-opacity="1" fill-rule="nonzero"/><g clip-path="url(#f0e5855eab)"><path fill="#ffaa01" d="M 131.871094 183.394531 C 135.277344 186.960938 139.546875 185.378906 139.535156 185.433594 C 139.417969 185.40625 138.53125 177.828125 135.890625 174.015625 C 133.113281 170.210938 127.324219 169.125 127.292969 169.160156 C 127.082031 169.171875 128.230469 179.867188 131.871094 183.394531 Z M 131.871094 183.394531 " fill-opacity="1" fill-rule="nonzero"/></g><path fill="#ffaa01" d="M 150.546875 197.601562 C 149.335938 201.6875 145.335938 203.378906 145.292969 203.335938 C 145.199219 203.4375 141.613281 196.179688 143.511719 191.988281 C 145.28125 187.875 151.121094 186.402344 151.09375 186.375 C 150.972656 186.394531 151.617188 193.527344 150.546875 197.601562 Z M 150.546875 197.601562 " fill-opacity="1" fill-rule="nonzero"/><path fill="#ffaa01" d="M 137.738281 203.597656 C 142.046875 205.933594 145.617188 203.101562 145.617188 203.160156 C 145.5 203.164062 142.375 196.222656 138.707031 193.453125 C 134.914062 190.726562 129.082031 191.515625 129.070312 191.550781 C 128.886719 191.621094 133.234375 201.355469 137.738281 203.597656 Z M 137.738281 203.597656 " fill-opacity="1" fill-rule="nonzero"/><path fill="#ffaa01" d="M 159.792969 211.398438 C 159.917969 215.6875 156.632812 218.546875 156.582031 218.519531 C 156.519531 218.644531 150.847656 212.789062 151.386719 208.191406 C 151.8125 203.707031 156.914062 200.492188 156.875 200.476562 C 156.757812 200.523438 159.53125 207.160156 159.792969 211.398438 Z M 159.792969 211.398438 " fill-opacity="1" fill-rule="nonzero"/><path fill="#ffaa01" d="M 149.472656 221.101562 C 154.296875 222.011719 156.820312 218.191406 156.839844 218.25 C 156.722656 218.292969 151.585938 212.597656 147.277344 211.082031 C 142.84375 209.644531 137.558594 212.207031 137.558594 212.246094 C 137.394531 212.363281 144.472656 220.339844 149.472656 221.101562 Z M 149.472656 221.101562 " fill-opacity="1" fill-rule="nonzero"/><path fill="#ffaa01" d="M 173.113281 221.738281 C 174.6875 225.792969 172.476562 229.539062 172.410156 229.535156 C 172.371094 229.683594 164.890625 225.863281 163.945312 221.292969 C 162.910156 216.863281 166.769531 212.203125 166.71875 212.199219 C 166.621094 212.285156 171.414062 217.78125 173.113281 221.738281 Z M 173.113281 221.738281 " fill-opacity="1" fill-rule="nonzero"/><path fill="#ffaa01" d="M 166.375 234.222656 C 171.375 233.578125 172.539062 229.144531 172.574219 229.199219 C 172.453125 229.285156 165.546875 225.453125 160.945312 225.332031 C 156.230469 225.332031 152.003906 229.414062 152.015625 229.457031 C 151.878906 229.617188 161.230469 235.066406 166.375 234.222656 Z M 166.375 234.222656 " fill-opacity="1" fill-rule="nonzero"/><g clip-path="url(#5cfed0c92e)"><path fill="#ffaa01" d="M 152.105469 137.351562 C 148.789062 141.832031 146.039062 146.679688 144.039062 151.808594 C 142.027344 156.929688 140.714844 162.292969 140.136719 167.722656 C 139.851562 170.441406 139.753906 173.171875 139.828125 175.894531 C 139.90625 178.617188 140.15625 181.332031 140.597656 184.019531 C 141.039062 186.703125 141.640625 189.359375 142.433594 191.957031 C 143.214844 194.554688 144.167969 197.105469 145.296875 199.574219 C 149.796875 209.460938 156.945312 218.152344 165.933594 224.351562 C 166.496094 224.742188 167.066406 225.117188 167.636719 225.484375 C 167.921875 225.664062 168.21875 225.859375 168.496094 226.019531 L 168.917969 226.265625 C 169.0625 226.347656 169.207031 226.421875 169.351562 226.496094 C 169.925781 226.808594 170.535156 227.078125 171.148438 227.335938 C 171.773438 227.582031 172.402344 227.828125 173.050781 228.039062 C 174.339844 228.480469 175.675781 228.859375 177.011719 229.285156 C 178.351562 229.71875 179.703125 230.179688 181.007812 230.773438 C 181.664062 231.066406 182.300781 231.390625 182.925781 231.738281 C 183.546875 232.085938 184.164062 232.457031 184.746094 232.863281 C 185.335938 233.273438 185.910156 233.703125 186.449219 234.171875 C 186.992188 234.636719 187.507812 235.140625 187.980469 235.667969 C 188.460938 236.199219 188.894531 236.765625 189.296875 237.351562 C 189.695312 237.941406 190.050781 238.554688 190.371094 239.179688 C 191.003906 240.4375 191.527344 241.730469 192.027344 243.03125 C 191.367188 241.804688 190.734375 240.5625 189.980469 239.398438 C 189.613281 238.820312 189.21875 238.253906 188.789062 237.726562 C 188.355469 237.199219 187.894531 236.699219 187.394531 236.238281 C 185.410156 234.382812 182.992188 233.046875 180.453125 232.105469 C 177.917969 231.148438 175.214844 230.652344 172.472656 229.886719 C 171.789062 229.699219 171.101562 229.476562 170.421875 229.242188 C 169.738281 228.992188 169.058594 228.730469 168.394531 228.40625 C 168.226562 228.324219 168.058594 228.253906 167.894531 228.167969 L 167.40625 227.910156 C 167.070312 227.734375 166.777344 227.558594 166.464844 227.378906 C 165.851562 227.027344 165.246094 226.652344 164.648438 226.273438 C 162.25 224.75 159.960938 223.050781 157.816406 221.179688 C 157.273438 220.722656 156.75 220.234375 156.222656 219.757812 C 155.703125 219.265625 155.191406 218.777344 154.691406 218.269531 C 153.6875 217.257812 152.714844 216.21875 151.789062 215.136719 C 149.925781 212.980469 148.234375 210.679688 146.6875 208.285156 C 145.925781 207.078125 145.199219 205.851562 144.519531 204.597656 L 143.527344 202.703125 L 142.605469 200.773438 C 141.433594 198.175781 140.4375 195.496094 139.632812 192.761719 C 138.84375 190.023438 138.230469 187.234375 137.832031 184.414062 C 137.433594 181.589844 137.222656 178.75 137.226562 175.90625 C 137.222656 173.058594 137.433594 170.21875 137.835938 167.414062 C 138.660156 161.796875 140.296875 156.3125 142.707031 151.214844 C 145.136719 146.148438 148.285156 141.414062 152.105469 137.351562 Z M 152.105469 137.351562 " fill-opacity="1" fill-rule="nonzero"/></g><path fill="#ffaa01" d="M 224.265625 145.191406 C 227.316406 150.035156 229.367188 151.191406 231.25 150.371094 C 233.007812 149.585938 233.839844 146.875 230.351562 141.328125 C 226.828125 135.621094 217.976562 131.957031 218.003906 132.101562 C 218.179688 132.164062 221.414062 140.425781 224.265625 145.191406 Z M 224.265625 145.191406 " fill-opacity="1" fill-rule="nonzero"/><path fill="#ffaa01" d="M 228.597656 164.957031 C 231.996094 167.59375 236.226562 166.566406 236.242188 166.511719 C 236.390625 166.554688 234.988281 158.398438 230.863281 156.023438 C 226.90625 153.644531 221.304688 155.960938 221.320312 155.914062 C 221.453125 155.871094 225.355469 162.257812 228.597656 164.957031 Z M 228.597656 164.957031 " fill-opacity="1" fill-rule="nonzero"/><path fill="#ffaa01" d="M 242.507812 162.175781 C 240.410156 166.703125 235.835938 166.515625 235.871094 166.566406 C 235.984375 166.511719 234.40625 158.90625 235.605469 154.332031 C 236.953125 149.730469 242.066406 146.828125 242.109375 146.855469 C 242.339844 146.820312 244.875 157.632812 242.507812 162.175781 Z M 242.507812 162.175781 " fill-opacity="1" fill-rule="nonzero"/><path fill="#ffaa01" d="M 229.121094 181.683594 C 231.515625 185.195312 235.847656 185.550781 235.878906 185.5 C 235.996094 185.574219 237.230469 177.546875 234.125 174.125 C 231.171875 170.738281 225.140625 171.160156 225.164062 171.121094 C 225.292969 171.101562 226.875 178.144531 229.121094 181.683594 Z M 229.121094 181.683594 " fill-opacity="1" fill-rule="nonzero"/><g clip-path="url(#89f2279108)"><path fill="#ffaa01" d="M 243.171875 183.394531 C 239.765625 186.960938 235.492188 185.378906 235.507812 185.433594 C 235.625 185.40625 236.511719 177.828125 239.148438 174.015625 C 241.929688 170.210938 247.71875 169.125 247.75 169.160156 C 247.960938 169.171875 246.8125 179.867188 243.171875 183.394531 Z M 243.171875 183.394531 " fill-opacity="1" fill-rule="nonzero"/></g><path fill="#ffaa01" d="M 224.496094 197.601562 C 225.707031 201.6875 229.707031 203.378906 229.75 203.335938 C 229.839844 203.4375 233.429688 196.179688 231.53125 191.988281 C 229.757812 187.875 223.921875 186.402344 223.949219 186.375 C 224.070312 186.394531 223.425781 193.527344 224.496094 197.601562 Z M 224.496094 197.601562 " fill-opacity="1" fill-rule="nonzero"/><path fill="#ffaa01" d="M 237.300781 203.597656 C 232.992188 205.933594 229.421875 203.101562 229.421875 203.160156 C 229.542969 203.164062 232.667969 196.222656 236.332031 193.453125 C 240.128906 190.726562 245.957031 191.515625 245.972656 191.550781 C 246.15625 191.621094 241.808594 201.355469 237.300781 203.597656 Z M 237.300781 203.597656 " fill-opacity="1" fill-rule="nonzero"/><path fill="#ffaa01" d="M 215.25 211.398438 C 215.125 215.6875 218.40625 218.546875 218.460938 218.519531 C 218.523438 218.644531 224.195312 212.789062 223.65625 208.191406 C 223.230469 203.707031 218.128906 200.492188 218.167969 200.476562 C 218.28125 200.523438 215.507812 207.160156 215.25 211.398438 Z M 215.25 211.398438 " fill-opacity="1" fill-rule="nonzero"/><path fill="#ffaa01" d="M 225.570312 221.101562 C 220.742188 222.011719 218.21875 218.191406 218.199219 218.25 C 218.320312 218.292969 223.453125 212.597656 227.761719 211.082031 C 232.195312 209.644531 237.484375 212.207031 237.484375 212.246094 C 237.648438 212.363281 230.570312 220.339844 225.570312 221.101562 Z M 225.570312 221.101562 " fill-opacity="1" fill-rule="nonzero"/><path fill="#ffaa01" d="M 201.929688 221.738281 C 200.355469 225.792969 202.5625 229.539062 202.628906 229.535156 C 202.667969 229.683594 210.148438 225.863281 211.09375 221.292969 C 212.132812 216.863281 208.273438 212.203125 208.320312 212.199219 C 208.421875 212.285156 203.628906 217.78125 201.929688 221.738281 Z M 201.929688 221.738281 " fill-opacity="1" fill-rule="nonzero"/><path fill="#ffaa01" d="M 208.667969 234.222656 C 203.667969 233.578125 202.5 229.144531 202.46875 229.199219 C 202.585938 229.285156 209.496094 225.453125 214.097656 225.332031 C 218.808594 225.332031 223.039062 229.414062 223.027344 229.457031 C 223.160156 229.617188 213.808594 235.066406 208.667969 234.222656 Z M 208.667969 234.222656 " fill-opacity="1" fill-rule="nonzero"/><g clip-path="url(#35791400c2)"><path fill="#ffaa01" d="M 222.9375 137.351562 C 226.253906 141.832031 229 146.679688 231.003906 151.808594 C 233.011719 156.929688 234.328125 162.292969 234.902344 167.722656 C 235.191406 170.441406 235.289062 173.171875 235.214844 175.894531 C 235.132812 178.617188 234.882812 181.332031 234.441406 184.019531 C 234 186.703125 233.402344 189.359375 232.609375 191.957031 C 231.828125 194.554688 230.871094 197.105469 229.746094 199.574219 C 225.246094 209.460938 218.09375 218.152344 209.109375 224.351562 C 208.546875 224.742188 207.976562 225.117188 207.40625 225.484375 C 207.121094 225.664062 206.824219 225.859375 206.546875 226.019531 L 206.125 226.265625 C 205.980469 226.347656 205.835938 226.421875 205.691406 226.496094 C 205.117188 226.808594 204.507812 227.078125 203.890625 227.335938 C 203.269531 227.582031 202.640625 227.828125 201.992188 228.039062 C 200.703125 228.480469 199.367188 228.859375 198.027344 229.285156 C 196.691406 229.71875 195.335938 230.179688 194.03125 230.773438 C 193.378906 231.066406 192.742188 231.390625 192.117188 231.738281 C 191.492188 232.085938 190.878906 232.457031 190.292969 232.863281 C 189.703125 233.273438 189.132812 233.703125 188.589844 234.171875 C 188.046875 234.636719 187.535156 235.140625 187.058594 235.667969 C 186.582031 236.199219 186.148438 236.765625 185.746094 237.351562 C 185.347656 237.941406 184.992188 238.554688 184.671875 239.179688 C 184.039062 240.4375 183.515625 241.730469 183.015625 243.03125 C 183.671875 241.804688 184.304688 240.5625 185.058594 239.398438 C 185.429688 238.820312 185.824219 238.253906 186.253906 237.726562 C 186.6875 237.199219 187.148438 236.699219 187.644531 236.238281 C 189.632812 234.382812 192.050781 233.046875 194.589844 232.105469 C 197.121094 231.148438 199.828125 230.652344 202.566406 229.886719 C 203.253906 229.699219 203.941406 229.476562 204.621094 229.242188 C 205.304688 228.992188 205.984375 228.730469 206.648438 228.40625 C 206.816406 228.324219 206.984375 228.253906 207.144531 228.167969 L 207.636719 227.910156 C 207.972656 227.734375 208.261719 227.558594 208.574219 227.378906 C 209.191406 227.027344 209.792969 226.652344 210.394531 226.273438 C 212.792969 224.75 215.082031 223.050781 217.226562 221.179688 C 217.769531 220.722656 218.292969 220.234375 218.820312 219.757812 C 219.335938 219.265625 219.851562 218.777344 220.351562 218.269531 C 221.351562 217.257812 222.328125 216.21875 223.253906 215.136719 C 225.113281 212.980469 226.808594 210.679688 228.355469 208.285156 C 229.117188 207.078125 229.839844 205.851562 230.523438 204.597656 L 231.515625 202.703125 L 232.4375 200.773438 C 233.609375 198.175781 234.605469 195.496094 235.40625 192.761719 C 236.199219 190.023438 236.8125 187.234375 237.210938 184.414062 C 237.609375 181.589844 237.820312 178.75 237.816406 175.90625 C 237.820312 173.058594 237.609375 170.21875 237.207031 167.414062 C 236.382812 161.796875 234.746094 156.3125 232.335938 151.214844 C 229.902344 146.148438 226.757812 141.414062 222.9375 137.351562 Z M 222.9375 137.351562 " fill-opacity="1" fill-rule="nonzero"/></g><g clip-path="url(#222c940eaa)"><path fill="#8a8d43" d="M 194.242188 166.996094 C 193.914062 166.71875 193.628906 166.402344 193.386719 166.054688 C 192.945312 165.414062 192.660156 164.675781 192.578125 163.890625 L 192.453125 162.726562 L 182.539062 162.726562 L 182.414062 163.890625 C 182.335938 164.601562 182.097656 165.277344 181.722656 165.871094 C 181.460938 166.289062 181.136719 166.671875 180.75 166.996094 C 179.371094 168.171875 178.5 169.90625 178.5 171.839844 L 178.503906 197.960938 C 178.503906 200.34375 180.464844 199.886719 182.890625 199.886719 L 192.101562 199.886719 C 194.527344 199.886719 196.488281 200.34375 196.488281 197.960938 L 196.492188 171.839844 C 196.492188 169.90625 195.621094 168.171875 194.242188 166.996094 " fill-opacity="1" fill-rule="nonzero"/></g><g clip-path="url(#6433a4f728)"><path fill="#fefbee" d="M 178.5 184.546875 L 196.492188 184.546875 L 196.492188 174.28125 L 178.5 174.28125 Z M 178.5 184.546875 " fill-opacity="1" fill-rule="nonzero"/></g><g clip-path="url(#2474b5fdd9)"><path fill="#d6d78a" d="M 196.492188 194.421875 L 178.5 194.421875 L 178.5 184.546875 L 196.492188 184.546875 L 196.492188 194.421875 " fill-opacity="1" fill-rule="nonzero"/></g><path fill="#9bad5c" d="M 193.359375 164.429688 C 189.488281 165.320312 185.617188 165.320312 181.75 164.429688 L 181.75 156.054688 L 193.359375 156.054688 L 193.359375 164.429688 " fill-opacity="1" fill-rule="nonzero"/><path fill="#858730" d="M 193.359375 156.035156 C 193.359375 156.222656 190.757812 156.375 187.554688 156.375 C 184.347656 156.375 181.75 156.222656 181.75 156.035156 C 181.75 155.84375 184.347656 155.691406 187.554688 155.691406 C 190.757812 155.691406 193.359375 155.84375 193.359375 156.035156 " fill-opacity="1" fill-rule="nonzero"/><g clip-path="url(#65799db61e)"><path fill="#6a833b" d="M 191.371094 156.144531 L 183.917969 156.144531 L 184.339844 148.234375 C 184.339844 146.910156 185.125 145.683594 186.375 145.183594 C 187.054688 144.910156 187.730469 144.847656 188.402344 144.996094 C 189.910156 145.332031 190.949219 146.699219 190.949219 148.21875 L 191.371094 156.144531 " fill-opacity="1" fill-rule="nonzero"/></g><path fill="#527134" d="M 189.765625 176.339844 C 189.765625 176.339844 188.5 179.890625 190.390625 181.347656 C 189.992188 180.25 189.839844 176.878906 189.820312 176.414062 C 189.785156 176.367188 189.765625 176.339844 189.765625 176.339844 " fill-opacity="1" fill-rule="nonzero"/><path fill="#7e983b" d="M 190.613281 180.269531 C 190.757812 179.601562 190.804688 178.886719 190.679688 178.203125 C 190.617188 177.851562 190.507812 177.507812 190.351562 177.183594 C 190.316406 177.105469 189.957031 176.601562 189.820312 176.414062 C 189.839844 176.878906 189.992188 180.25 190.390625 181.347656 C 190.40625 181.359375 190.421875 181.375 190.441406 181.386719 C 190.371094 181.335938 190.585938 180.390625 190.613281 180.269531 " fill-opacity="1" fill-rule="nonzero"/><path fill="#536f31" d="M 187.949219 178.789062 C 187.949219 178.789062 184.796875 178.941406 184.285156 180.808594 L 187.929688 178.800781 L 187.949219 178.789062 " fill-opacity="1" fill-rule="nonzero"/><path fill="#839e3e" d="M 184.285156 180.808594 L 184.277344 180.828125 C 184.296875 180.757812 184.585938 180.726562 184.640625 180.714844 C 184.839844 180.671875 185.039062 180.644531 185.238281 180.601562 C 185.636719 180.523438 186.03125 180.410156 186.402344 180.242188 C 186.75 180.082031 187.074219 179.875 187.347656 179.609375 C 187.484375 179.476562 187.597656 179.328125 187.703125 179.171875 C 187.726562 179.132812 187.867188 178.863281 187.929688 178.800781 L 184.285156 180.808594 " fill-opacity="1" fill-rule="nonzero"/><path fill="#85a13a" d="M 188.453125 182.734375 C 188.394531 182.6875 188.484375 182.417969 188.496094 182.363281 C 188.535156 182.171875 188.59375 181.984375 188.636719 181.789062 C 188.722656 181.402344 188.78125 181.007812 188.773438 180.609375 C 188.769531 180.238281 188.710938 179.863281 188.574219 179.511719 C 188.507812 179.335938 188.421875 179.171875 188.316406 179.015625 C 188.289062 178.976562 188.046875 178.679688 188.0625 178.640625 C 188.0625 178.640625 188.058594 178.648438 188.050781 178.667969 C 188.078125 179.371094 188.164062 181.292969 188.398438 182.6875 C 188.414062 182.703125 188.433594 182.71875 188.453125 182.734375 " fill-opacity="1" fill-rule="nonzero"/><path fill="#6a833b" d="M 188.050781 178.667969 C 187.941406 178.964844 187.023438 181.519531 188.398438 182.6875 C 188.164062 181.292969 188.078125 179.371094 188.050781 178.667969 " fill-opacity="1" fill-rule="nonzero"/><path fill="#6a833b" d="M 189.777344 176.15625 C 189.777344 176.15625 186.09375 175.4375 184.921875 177.152344 C 184.929688 177.140625 184.953125 177.132812 184.980469 177.128906 C 185.277344 177.003906 187.152344 176.253906 189.667969 176.21875 C 189.71875 176.183594 189.761719 176.15625 189.777344 176.15625 " fill-opacity="1" fill-rule="nonzero"/><path fill="#92a138" d="M 184.980469 177.128906 C 185.09375 177.105469 185.320312 177.136719 185.375 177.140625 C 185.613281 177.152344 185.851562 177.183594 186.09375 177.195312 C 186.574219 177.226562 187.0625 177.222656 187.539062 177.160156 C 187.988281 177.097656 188.429688 176.984375 188.824219 176.796875 C 189.027344 176.703125 189.203125 176.59375 189.371094 176.464844 C 189.402344 176.441406 189.554688 176.304688 189.667969 176.21875 C 187.152344 176.253906 185.277344 177.003906 184.980469 177.128906 " fill-opacity="1" fill-rule="nonzero"/><path fill="#596244" d="M 190.367188 175.792969 C 190.257812 175.882812 190.148438 175.980469 190.042969 176.078125 C 189.9375 176.179688 189.835938 176.28125 189.734375 176.386719 C 189.535156 176.59375 189.339844 176.808594 189.15625 177.03125 C 188.789062 177.480469 188.457031 177.957031 188.167969 178.457031 C 188.023438 178.707031 187.886719 178.964844 187.769531 179.226562 C 187.738281 179.292969 187.710938 179.359375 187.679688 179.425781 C 187.652344 179.492188 187.621094 179.558594 187.597656 179.625 L 187.519531 179.828125 L 187.410156 180.136719 L 187.378906 180.238281 C 187.359375 180.308594 187.335938 180.378906 187.316406 180.445312 L 187.261719 180.65625 C 187.253906 180.691406 187.242188 180.726562 187.234375 180.761719 L 187.214844 180.867188 C 187.199219 180.9375 187.179688 181.007812 187.167969 181.078125 L 187.128906 181.292969 C 187.125 181.328125 187.117188 181.363281 187.113281 181.398438 L 187.097656 181.507812 L 187.070312 181.722656 L 187.09375 181.507812 L 187.105469 181.398438 C 187.109375 181.363281 187.113281 181.328125 187.121094 181.292969 L 187.152344 181.078125 C 187.164062 181.003906 187.179688 180.933594 187.191406 180.863281 L 187.214844 180.757812 C 187.21875 180.722656 187.230469 180.6875 187.238281 180.652344 L 187.289062 180.4375 C 187.304688 180.367188 187.328125 180.300781 187.347656 180.230469 L 187.375 180.125 L 187.410156 180.019531 L 187.476562 179.8125 L 187.550781 179.609375 C 187.574219 179.539062 187.601562 179.472656 187.628906 179.40625 C 187.65625 179.339844 187.683594 179.269531 187.710938 179.203125 C 187.828125 178.9375 187.957031 178.675781 188.09375 178.417969 C 188.375 177.90625 188.699219 177.417969 189.058594 176.957031 C 189.242188 176.726562 189.429688 176.503906 189.632812 176.289062 C 189.730469 176.179688 189.832031 176.074219 189.9375 175.972656 C 190.042969 175.867188 190.148438 175.769531 190.261719 175.667969 L 190.367188 175.792969 " fill-opacity="1" fill-rule="nonzero"/><path fill="#ffffff" d="M 188.367188 178.035156 L 188.429688 178.722656 L 188.367188 178.035156 " fill-opacity="1" fill-rule="nonzero"/><path fill="#596244" d="M 188.429688 178.753906 C 188.414062 178.753906 188.398438 178.742188 188.398438 178.726562 L 188.332031 178.039062 C 188.332031 178.019531 188.34375 178.003906 188.363281 178.003906 C 188.382812 178 188.398438 178.015625 188.398438 178.03125 L 188.464844 178.71875 C 188.464844 178.738281 188.453125 178.753906 188.433594 178.753906 L 188.429688 178.753906 " fill-opacity="1" fill-rule="nonzero"/><path fill="#a3a038" d="M 188.578125 180.570312 C 188.226562 180.558594 187.929688 180.140625 187.910156 179.613281 C 187.894531 179.101562 188.148438 178.671875 188.488281 178.621094 C 188.84375 178.632812 189.136719 179.050781 189.15625 179.578125 C 189.171875 180.089844 188.917969 180.519531 188.578125 180.570312 " fill-opacity="1" fill-rule="nonzero"/><path fill="#858730" d="M 188.578125 180.570312 C 188.5625 180.570312 188.542969 180.574219 188.527344 180.574219 C 188.160156 180.585938 187.851562 180.15625 187.832031 179.617188 C 187.816406 179.078125 188.097656 178.632812 188.464844 178.621094 L 188.488281 178.621094 C 188.148438 178.671875 187.894531 179.101562 187.910156 179.613281 C 187.929688 180.140625 188.226562 180.558594 188.578125 180.570312 " fill-opacity="1" fill-rule="nonzero"/><path fill="#a3a038" d="M 188.578125 180.570312 C 188.226562 180.558594 187.929688 180.140625 187.910156 179.613281 C 187.894531 179.101562 188.148438 178.671875 188.488281 178.621094 C 188.84375 178.632812 189.136719 179.050781 189.15625 179.578125 C 189.171875 180.089844 188.917969 180.519531 188.578125 180.570312 " fill-opacity="1" fill-rule="nonzero"/><path fill="#d0cd7e" d="M 188.867188 179.121094 C 188.90625 179.230469 188.871094 179.34375 188.796875 179.367188 C 188.71875 179.390625 188.628906 179.316406 188.59375 179.207031 C 188.558594 179.09375 188.589844 178.984375 188.664062 178.960938 C 188.742188 178.9375 188.832031 179.007812 188.867188 179.121094 " fill-opacity="1" fill-rule="nonzero"/><path fill="#a29d34" d="M 186.757812 178.835938 C 186.441406 178.835938 186.175781 178.714844 186.070312 178.488281 C 186.058594 178.472656 186.054688 178.453125 186.046875 178.433594 C 186.167969 178.617188 186.414062 178.71875 186.699219 178.71875 C 186.898438 178.71875 187.117188 178.671875 187.328125 178.574219 C 187.859375 178.332031 188.167969 177.867188 188.050781 177.511719 C 188.0625 177.53125 188.074219 177.550781 188.085938 177.574219 C 188.257812 177.9375 187.945312 178.4375 187.386719 178.691406 C 187.175781 178.789062 186.957031 178.835938 186.757812 178.835938 " fill-opacity="1" fill-rule="nonzero"/><path fill="#a3a038" d="M 187.328125 178.574219 C 186.808594 178.8125 186.253906 178.746094 186.046875 178.433594 C 185.929688 178.078125 186.238281 177.613281 186.765625 177.371094 C 187.289062 177.132812 187.84375 177.199219 188.050781 177.511719 C 188.167969 177.867188 187.859375 178.332031 187.328125 178.574219 " fill-opacity="1" fill-rule="nonzero"/><path fill="#ffffff" d="M 188.015625 177.542969 L 188.929688 177.203125 L 188.015625 177.542969 " fill-opacity="1" fill-rule="nonzero"/><path fill="#596244" d="M 188.011719 177.578125 C 188 177.574219 187.988281 177.566406 187.984375 177.554688 C 187.976562 177.539062 187.984375 177.519531 188.003906 177.511719 L 188.917969 177.171875 C 188.933594 177.167969 188.953125 177.175781 188.960938 177.191406 C 188.96875 177.207031 188.957031 177.226562 188.941406 177.234375 L 188.027344 177.574219 L 188.011719 177.578125 " fill-opacity="1" fill-rule="nonzero"/><path fill="#858730" d="M 187.386719 178.691406 C 186.832031 178.945312 186.238281 178.855469 186.070312 178.488281 C 186.058594 178.472656 186.054688 178.453125 186.046875 178.433594 C 186.253906 178.746094 186.808594 178.8125 187.328125 178.574219 C 187.859375 178.332031 188.167969 177.867188 188.050781 177.511719 C 188.0625 177.53125 188.074219 177.550781 188.085938 177.574219 C 188.257812 177.9375 187.945312 178.4375 187.386719 178.691406 " fill-opacity="1" fill-rule="nonzero"/><path fill="#a3a038" d="M 187.328125 178.574219 C 186.808594 178.8125 186.253906 178.746094 186.046875 178.433594 C 185.929688 178.078125 186.238281 177.613281 186.765625 177.371094 C 187.289062 177.132812 187.84375 177.199219 188.050781 177.511719 C 188.167969 177.867188 187.859375 178.332031 187.328125 178.574219 " fill-opacity="1" fill-rule="nonzero"/><path fill="#d0cd7e" d="M 187.441406 177.6875 C 187.300781 177.726562 187.167969 177.683594 187.140625 177.59375 C 187.113281 177.5 187.207031 177.394531 187.34375 177.355469 C 187.484375 177.316406 187.621094 177.359375 187.644531 177.449219 C 187.671875 177.542969 187.582031 177.648438 187.441406 177.6875 " fill-opacity="1" fill-rule="nonzero"/><path fill="#465f29" d="M 187.476562 179.894531 C 187.476562 179.894531 184.5625 182.109375 185.539062 184.097656 L 185.546875 184.082031 L 185.554688 184.054688 C 185.945312 182.800781 187.28125 180.269531 187.46875 179.921875 C 187.46875 179.90625 187.472656 179.898438 187.476562 179.894531 " fill-opacity="1" fill-rule="nonzero"/><path fill="#839e3e" d="M 187.535156 180.394531 C 187.53125 180.347656 187.457031 180.023438 187.46875 179.921875 C 187.28125 180.269531 185.945312 182.800781 185.554688 184.054688 C 185.597656 183.960938 185.769531 183.808594 185.808594 183.769531 C 185.964844 183.601562 186.132812 183.445312 186.292969 183.28125 C 186.609375 182.945312 186.902344 182.585938 187.125 182.195312 C 187.335938 181.828125 187.484375 181.429688 187.539062 181.015625 C 187.566406 180.804688 187.5625 180.601562 187.535156 180.394531 " fill-opacity="1" fill-rule="nonzero"/><path fill="#a3a038" d="M 190.058594 179.550781 C 189.734375 179.605469 189.351562 179.308594 189.179688 178.84375 C 188.996094 178.351562 189.113281 177.859375 189.433594 177.722656 C 189.761719 177.664062 190.140625 177.964844 190.3125 178.429688 C 190.496094 178.921875 190.382812 179.414062 190.058594 179.550781 " fill-opacity="1" fill-rule="nonzero"/><path fill="#ffffff" d="M 189.09375 177.101562 L 189.367188 177.792969 L 189.09375 177.101562 " fill-opacity="1" fill-rule="nonzero"/><path fill="#596244" d="M 189.363281 177.824219 C 189.351562 177.824219 189.339844 177.816406 189.335938 177.804688 L 189.0625 177.113281 C 189.054688 177.09375 189.066406 177.078125 189.082031 177.070312 C 189.097656 177.0625 189.121094 177.070312 189.125 177.089844 L 189.398438 177.78125 C 189.40625 177.796875 189.394531 177.816406 189.378906 177.824219 L 189.363281 177.824219 " fill-opacity="1" fill-rule="nonzero"/><path fill="#858730" d="M 190.058594 179.550781 L 190.035156 179.558594 C 189.695312 179.679688 189.269531 179.371094 189.082031 178.871094 C 188.894531 178.371094 189.019531 177.863281 189.359375 177.742188 C 189.382812 177.734375 189.410156 177.726562 189.433594 177.722656 C 189.113281 177.859375 188.996094 178.351562 189.179688 178.84375 C 189.351562 179.308594 189.734375 179.605469 190.058594 179.550781 " fill-opacity="1" fill-rule="nonzero"/><path fill="#a3a038" d="M 190.058594 179.550781 C 189.734375 179.605469 189.351562 179.308594 189.179688 178.84375 C 188.996094 178.351562 189.113281 177.859375 189.433594 177.722656 C 189.761719 177.664062 190.140625 177.964844 190.3125 178.429688 C 190.496094 178.921875 190.382812 179.414062 190.058594 179.550781 " fill-opacity="1" fill-rule="nonzero"/><path fill="#d0cd7e" d="M 189.878906 178.0625 C 189.9375 178.167969 189.929688 178.285156 189.859375 178.328125 C 189.789062 178.367188 189.679688 178.3125 189.621094 178.207031 C 189.558594 178.101562 189.566406 177.984375 189.636719 177.945312 C 189.710938 177.90625 189.816406 177.957031 189.878906 178.0625 " fill-opacity="1" fill-rule="nonzero"/><g fill="#ffffff" fill-opacity="1"><g transform="translate(164.231503, 101.121617)"><g><path d="M 1.65625 -0.296875 L -0.84375 -14.078125 L 5.3125 -15.203125 C 6.71875 -15.453125 7.890625 -15.316406 8.828125 -14.796875 C 9.773438 -14.273438 10.351562 -13.445312 10.5625 -12.3125 C 10.675781 -11.675781 10.632812 -11.066406 10.4375 -10.484375 C 10.25 -9.910156 9.925781 -9.429688 9.46875 -9.046875 C 10.175781 -8.867188 10.757812 -8.53125 11.21875 -8.03125 C 11.675781 -7.539062 11.972656 -6.925781 12.109375 -6.1875 C 12.253906 -5.40625 12.179688 -4.691406 11.890625 -4.046875 C 11.597656 -3.398438 11.128906 -2.851562 10.484375 -2.40625 C 9.847656 -1.957031 9.0625 -1.648438 8.125 -1.484375 Z M 4.28125 -3.328125 L 7.203125 -3.859375 C 7.816406 -3.972656 8.269531 -4.207031 8.5625 -4.5625 C 8.851562 -4.914062 8.953125 -5.359375 8.859375 -5.890625 C 8.765625 -6.410156 8.519531 -6.78125 8.125 -7 C 7.726562 -7.226562 7.222656 -7.285156 6.609375 -7.171875 L 3.6875 -6.640625 Z M 3.25 -9.015625 L 5.84375 -9.484375 C 6.445312 -9.597656 6.882812 -9.820312 7.15625 -10.15625 C 7.425781 -10.5 7.519531 -10.921875 7.4375 -11.421875 C 7.34375 -11.910156 7.109375 -12.257812 6.734375 -12.46875 C 6.367188 -12.6875 5.882812 -12.738281 5.28125 -12.625 L 2.6875 -12.15625 Z M 3.25 -9.015625 "/></g></g></g><g fill="#ffffff" fill-opacity="1"><g transform="translate(180.29385, 98.396204)"><g><path d="M 0.1875 0 L 5.765625 -13.984375 L 8.890625 -13.984375 L 14.421875 0.03125 L 11.015625 0.03125 L 10.078125 -2.390625 L 4.515625 -2.40625 L 3.578125 0.015625 Z M 5.359375 -4.90625 L 9.296875 -4.90625 L 7.328125 -10.03125 Z M 5.359375 -4.90625 "/></g></g></g><g fill="#ffffff" fill-opacity="1"><g transform="translate(197.408288, 98.723707)"><g><path d="M 1.65625 0.3125 L 4.1875 -13.453125 L 9.5625 -12.46875 C 10.6875 -12.257812 11.617188 -11.875 12.359375 -11.3125 C 13.097656 -10.757812 13.625 -10.066406 13.9375 -9.234375 C 14.25 -8.410156 14.3125 -7.492188 14.125 -6.484375 C 13.9375 -5.484375 13.550781 -4.648438 12.96875 -3.984375 C 12.382812 -3.328125 11.644531 -2.867188 10.75 -2.609375 C 9.863281 -2.359375 8.859375 -2.335938 7.734375 -2.546875 L 5.484375 -2.96875 L 4.78125 0.875 Z M 5.96875 -5.65625 L 8 -5.28125 C 8.800781 -5.132812 9.457031 -5.210938 9.96875 -5.515625 C 10.488281 -5.816406 10.816406 -6.332031 10.953125 -7.0625 C 11.078125 -7.769531 10.953125 -8.363281 10.578125 -8.84375 C 10.210938 -9.320312 9.628906 -9.632812 8.828125 -9.78125 L 6.796875 -10.15625 Z M 5.96875 -5.65625 "/></g></g></g><g fill="#ffffff" fill-opacity="1"><g transform="translate(83.659682, 186.24537)"><g><path d="M 0.109375 1.6875 L 14.078125 0.75 L 14.5 6.984375 C 14.59375 8.410156 14.328125 9.5625 13.703125 10.4375 C 13.078125 11.320312 12.195312 11.800781 11.0625 11.875 C 10.414062 11.925781 9.8125 11.820312 9.25 11.5625 C 8.695312 11.300781 8.253906 10.914062 7.921875 10.40625 C 7.671875 11.09375 7.269531 11.632812 6.71875 12.03125 C 6.164062 12.4375 5.515625 12.664062 4.765625 12.71875 C 3.984375 12.769531 3.285156 12.613281 2.671875 12.25 C 2.066406 11.894531 1.578125 11.375 1.203125 10.6875 C 0.828125 10.007812 0.609375 9.195312 0.546875 8.25 Z M 2.84375 4.625 L 3.03125 7.59375 C 3.070312 8.21875 3.253906 8.691406 3.578125 9.015625 C 3.898438 9.347656 4.320312 9.5 4.84375 9.46875 C 5.375 9.4375 5.769531 9.234375 6.03125 8.859375 C 6.300781 8.492188 6.414062 8 6.375 7.375 L 6.1875 4.40625 Z M 8.609375 4.25 L 8.78125 6.890625 C 8.820312 7.503906 8.992188 7.960938 9.296875 8.265625 C 9.597656 8.578125 10.003906 8.71875 10.515625 8.6875 C 11.003906 8.65625 11.375 8.460938 11.625 8.109375 C 11.882812 7.765625 11.992188 7.285156 11.953125 6.671875 L 11.78125 4.03125 Z M 8.609375 4.25 "/></g></g></g><g fill="#ffffff" fill-opacity="1"><g transform="translate(85.296042, 204.622347)"><g><path d="M 0.40625 1.640625 L 13.984375 -1.765625 L 15.4375 4.015625 C 15.707031 5.054688 15.75 6.003906 15.5625 6.859375 C 15.375 7.722656 14.984375 8.445312 14.390625 9.03125 C 13.796875 9.613281 13.015625 10.03125 12.046875 10.28125 C 11.046875 10.53125 10.128906 10.515625 9.296875 10.234375 C 8.472656 9.960938 7.78125 9.460938 7.21875 8.734375 L 3.203125 12.75 L 2.3125 9.171875 L 5.921875 5.6875 L 5.421875 3.65625 L 1.1875 4.71875 Z M 8 2.953125 L 8.59375 5.296875 C 8.78125 6.066406 9.101562 6.609375 9.5625 6.921875 C 10.019531 7.242188 10.578125 7.320312 11.234375 7.15625 C 11.898438 6.988281 12.359375 6.65625 12.609375 6.15625 C 12.859375 5.664062 12.890625 5.035156 12.703125 4.265625 L 12.109375 1.921875 Z M 8 2.953125 "/></g></g></g><g fill="#ffffff" fill-opacity="1"><g transform="translate(90.368375, 222.420664)"><g><path d="M 0.640625 1.5625 L 13.59375 -3.75 L 14.796875 -0.8125 L 1.84375 4.5 Z M 0.640625 1.5625 "/></g></g></g><g fill="#ffffff" fill-opacity="1"><g transform="translate(94.544633, 232.676757)"><g><path d="M 4 7.171875 C 3.257812 5.941406 2.863281 4.691406 2.8125 3.421875 C 2.769531 2.160156 3.054688 0.976562 3.671875 -0.125 C 4.285156 -1.226562 5.207031 -2.144531 6.4375 -2.875 C 7.65625 -3.613281 8.894531 -4 10.15625 -4.03125 C 11.414062 -4.070312 12.59375 -3.78125 13.6875 -3.15625 C 14.789062 -2.53125 15.707031 -1.613281 16.4375 -0.40625 C 17.019531 0.5625 17.382812 1.5625 17.53125 2.59375 C 17.6875 3.625 17.628906 4.609375 17.359375 5.546875 C 17.085938 6.492188 16.597656 7.351562 15.890625 8.125 L 14.125 5.1875 C 14.476562 4.582031 14.640625 3.925781 14.609375 3.21875 C 14.578125 2.507812 14.359375 1.820312 13.953125 1.15625 C 13.535156 0.457031 13.003906 -0.0625 12.359375 -0.40625 C 11.710938 -0.75 11.019531 -0.898438 10.28125 -0.859375 C 9.550781 -0.828125 8.820312 -0.585938 8.09375 -0.140625 C 7.363281 0.285156 6.804688 0.8125 6.421875 1.4375 C 6.046875 2.070312 5.859375 2.753906 5.859375 3.484375 C 5.859375 4.222656 6.078125 4.957031 6.515625 5.6875 C 7.046875 6.570312 7.707031 7.164062 8.5 7.46875 C 9.300781 7.78125 10.125 7.804688 10.96875 7.546875 L 8.625 3.65625 L 10.71875 2.390625 L 14.796875 9.171875 C 13.816406 9.847656 12.816406 10.304688 11.796875 10.546875 C 10.773438 10.796875 9.78125 10.835938 8.8125 10.671875 C 7.84375 10.503906 6.945312 10.125 6.125 9.53125 C 5.3125 8.945312 4.601562 8.160156 4 7.171875 Z M 4 7.171875 "/></g></g></g><g fill="#ffffff" fill-opacity="1"><g transform="translate(105.902974, 250.441566)"><g><path d="M 0.125 0.140625 L 14.21875 -5.1875 L 16.328125 -2.875 L 9.703125 10.671875 L 7.40625 8.140625 L 8.578125 5.828125 L 4.828125 1.71875 L 2.40625 2.640625 Z M 7.234375 0.640625 L 9.890625 3.546875 L 12.34375 -1.375 Z M 7.234375 0.640625 "/></g></g></g><g fill="#ffffff" fill-opacity="1"><g transform="translate(119.22473, 264.468649)"><g><path d="M 1.359375 1.015625 L 9.734375 -10.203125 L 14.15625 -6.890625 C 15.34375 -6.003906 16.203125 -4.992188 16.734375 -3.859375 C 17.273438 -2.722656 17.472656 -1.550781 17.328125 -0.34375 C 17.191406 0.863281 16.707031 2.019531 15.875 3.125 C 15.039062 4.238281 14.066406 5.03125 12.953125 5.5 C 11.835938 5.976562 10.660156 6.125 9.421875 5.9375 C 8.179688 5.75 6.96875 5.210938 5.78125 4.328125 Z M 5.640625 0.5625 L 7.484375 1.9375 C 8.148438 2.4375 8.832031 2.738281 9.53125 2.84375 C 10.238281 2.945312 10.914062 2.859375 11.5625 2.578125 C 12.21875 2.304688 12.789062 1.84375 13.28125 1.1875 C 13.769531 0.53125 14.054688 -0.144531 14.140625 -0.84375 C 14.222656 -1.550781 14.109375 -2.226562 13.796875 -2.875 C 13.484375 -3.53125 12.992188 -4.109375 12.328125 -4.609375 L 10.515625 -5.96875 Z M 5.640625 0.5625 "/></g></g></g><g fill="#ffffff" fill-opacity="1"><g transform="translate(135.647631, 276.042275)"><g><path d="M 1.515625 0.75 L 7.78125 -11.765625 L 16 -7.65625 L 14.796875 -5.265625 L 9.390625 -7.953125 L 8.09375 -5.359375 L 13.015625 -2.90625 L 11.828125 -0.53125 L 6.90625 -2.984375 L 5.53125 -0.25 L 11.125 2.546875 L 9.921875 4.96875 Z M 1.515625 0.75 "/></g></g></g><g fill="#ffffff" fill-opacity="1"><g transform="translate(150.555042, 282.944743)"><g/></g></g><g fill="#ffffff" fill-opacity="1"><g transform="translate(159.137231, 286.024227)"><g><path d="M 0.1875 0.03125 L 8.453125 -12.53125 L 11.515625 -11.90625 L 14.125 2.9375 L 10.78125 2.234375 L 10.375 -0.328125 L 4.921875 -1.453125 L 3.5 0.734375 Z M 6.234375 -3.71875 L 10.09375 -2.921875 L 9.1875 -8.359375 Z M 6.234375 -3.71875 "/></g></g></g><g fill="#ffffff" fill-opacity="1"><g transform="translate(178.156748, 289.552995)"><g><path d="M 1.6875 0.03125 L 1.890625 -13.96875 L 4.578125 -13.9375 L 10.640625 -5.328125 L 10.765625 -13.84375 L 13.921875 -13.796875 L 13.71875 0.203125 L 11.015625 0.15625 L 4.96875 -8.515625 L 4.84375 0.0625 Z M 1.6875 0.03125 "/></g></g></g><g fill="#ffffff" fill-opacity="1"><g transform="translate(198.244972, 289.309798)"><g><path d="M 4.96875 -0.84375 L 3.109375 -11.703125 L -1.28125 -10.953125 L -1.78125 -13.890625 L 10.109375 -15.9375 L 10.609375 -13 L 6.234375 -12.25 L 8.09375 -1.390625 Z M 4.96875 -0.84375 "/></g></g></g><g fill="#ffffff" fill-opacity="1"><g transform="translate(215.553012, 285.802006)"><g><path d="M 1.609375 -0.515625 L -2.625 -13.859375 L 0.390625 -14.8125 L 4.625 -1.46875 Z M 1.609375 -0.515625 "/></g></g></g><g fill="#ffffff" fill-opacity="1"><g transform="translate(225.659699, 282.337929)"><g/></g></g><g fill="#ffffff" fill-opacity="1"><g transform="translate(234.006382, 278.783326)"><g><path d="M 1.453125 -0.859375 L -5.640625 -12.921875 L -0.921875 -15.6875 C 0.0546875 -16.257812 1.003906 -16.578125 1.921875 -16.640625 C 2.847656 -16.710938 3.703125 -16.535156 4.484375 -16.109375 C 5.265625 -15.679688 5.914062 -15.023438 6.4375 -14.140625 C 6.945312 -13.273438 7.195312 -12.398438 7.1875 -11.515625 C 7.175781 -10.628906 6.914062 -9.796875 6.40625 -9.015625 C 5.90625 -8.242188 5.164062 -7.570312 4.1875 -7 L 2.203125 -5.84375 L 4.1875 -2.46875 Z M 0.8125 -8.171875 L 2.59375 -9.21875 C 3.300781 -9.632812 3.75 -10.125 3.9375 -10.6875 C 4.125 -11.257812 4.03125 -11.863281 3.65625 -12.5 C 3.28125 -13.132812 2.796875 -13.507812 2.203125 -13.625 C 1.617188 -13.738281 0.972656 -13.585938 0.265625 -13.171875 L -1.515625 -12.125 Z M 0.8125 -8.171875 "/></g></g></g><g fill="#ffffff" fill-opacity="1"><g transform="translate(249.346817, 269.369675)"><g><path d="M 7.8125 -6.78125 L 4.125 -11.046875 L -0.015625 -7.453125 L 3.671875 -3.1875 L 1.28125 -1.109375 L -7.890625 -11.6875 L -5.5 -13.765625 L -1.984375 -9.703125 L 2.15625 -13.296875 L -1.359375 -17.359375 L 1.046875 -19.4375 L 10.21875 -8.859375 Z M 7.8125 -6.78125 "/></g></g></g><g fill="#ffffff" fill-opacity="1"><g transform="translate(264.090504, 255.95669)"><g><path d="M 0.109375 -0.140625 L -7.453125 -13.15625 L -5.515625 -15.609375 L 8.921875 -11.328125 L 6.8125 -8.65625 L 4.328125 -9.421875 L 0.890625 -5.046875 L 2.21875 -2.8125 Z M -0.546875 -7.25 L 1.875 -10.34375 L -3.375 -11.953125 Z M -0.546875 -7.25 "/></g></g></g><g fill="#ffffff" fill-opacity="1"><g transform="translate(275.666247, 240.519709)"><g><path d="M 0.78125 -1.5 L -11.609375 -8 L -8.828125 -13.28125 C -8.335938 -14.226562 -7.738281 -14.960938 -7.03125 -15.484375 C -6.320312 -16.003906 -5.550781 -16.285156 -4.71875 -16.328125 C -3.882812 -16.367188 -3.023438 -16.15625 -2.140625 -15.6875 C -1.222656 -15.207031 -0.546875 -14.585938 -0.109375 -13.828125 C 0.328125 -13.078125 0.515625 -12.238281 0.453125 -11.3125 L 6.109375 -11.640625 L 4.390625 -8.375 L -0.625 -8.1875 L -1.609375 -6.328125 L 2.25 -4.296875 Z M -4 -7.546875 L -2.875 -9.6875 C -2.507812 -10.382812 -2.390625 -11.003906 -2.515625 -11.546875 C -2.640625 -12.085938 -3.003906 -12.515625 -3.609375 -12.828125 C -4.210938 -13.148438 -4.773438 -13.207031 -5.296875 -13 C -5.816406 -12.789062 -6.257812 -12.335938 -6.625 -11.640625 L -7.75 -9.5 Z M -4 -7.546875 "/></g></g></g><g fill="#ffffff" fill-opacity="1"><g transform="translate(284.227309, 223.630603)"><g><path d="M 0.46875 -1.625 L -13 -5.46875 L -12.265625 -8.046875 L -3.890625 -10.84375 L -9.53125 -17.609375 L -8.796875 -20.1875 L 4.671875 -16.34375 L 3.796875 -13.3125 L -4.296875 -15.625 L -0.4375 -10.984375 L -1.046875 -8.875 L -6.78125 -6.96875 L 1.328125 -4.65625 Z M 0.46875 -1.625 "/></g></g></g><g fill="#ffffff" fill-opacity="1"><g transform="translate(289.997393, 200.837206)"><g><path d="M 0.015625 -0.1875 L -13.5625 -6.703125 L -13.34375 -9.828125 L 1.015625 -14.390625 L 0.78125 -10.984375 L -1.703125 -10.21875 L -2.109375 -4.671875 L 0.25 -3.5625 Z M -4.53125 -5.671875 L -4.25 -9.609375 L -9.5 -8 Z M -4.53125 -5.671875 "/></g></g></g></svg>